{
  "accessors": [
    {
      "bufferView": 2,
      "componentType": 5126,
      "count": 2526,
      "max": [
        0.994351327419281,
        0.994351327419281,
        1.0000001192092896
      ],
      "min": [
        -2.2842278480529785,
        -0.994351327419281,
        -0.11201037466526031
      ],
      "type": "VEC3"
    },
    {
      "bufferView": 2,
      "byteOffset": 30312,
      "componentType": 5126,
      "count": 2526,
      "max": [
        0.9999811053276062,
        0.999981164932251,
        1.0
      ],
      "min": [
        -0.9999811053276062,
        -0.999981164932251,
        -1.0
      ],
      "type": "VEC3"
    },
    {
      "bufferView": 1,
      "componentType": 5126,
      "count": 2526,
      "max": [
        1.0000001192092896,
        1.0000001192092896
      ],
      "min": [
        0.0,
        0.01000000536441803
      ],
      "type": "VEC2"
    },
    {
      "bufferView": 0,
      "componentType": 5125,
      "count": 12129,
      "type": "SCALAR"
    },
    {
      "bufferView": 2,
      "byteOffset": 60624,
      "componentType": 5126,
      "count": 215,
      "max": [
        -0.9970239996910095,
        0.10164380073547363,
        0.9478485584259033
      ],
      "min": [
        -2.364772319793701,
        -0.10161062330007553,
        0.5160843729972839
      ],
      "type": "VEC3"
    },
    {
      "bufferView": 2,
      "byteOffset": 63204,
      "componentType": 5126,
      "count": 215,
      "max": [
        0.6726188063621521,
        0.9952365756034851,
        0.9995824098587036
      ],
      "min": [
        -0.9998446106910706,
        -0.9952773451805115,
        -0.9988296627998352
      ],
      "type": "VEC3"
    },
    {
      "bufferView": 1,
      "byteOffset": 20208,
      "componentType": 5126,
      "count": 215,
      "max": [
        0.2706557512283325,
        0.9869622588157654
      ],
      "min": [
        0.2293442040681839,
        0.8998708724975586
      ],
      "type": "VEC2"
    },
    {
      "bufferView": 0,
      "byteOffset": 48516,
      "componentType": 5125,
      "count": 873,
      "type": "SCALAR"
    }
  ],
  "asset": {
    "extras": {
      "author": "marecek (https://sketchfab.com/marecekdeme)",
      "license": "SKETCHFAB Standard (https://sketchfab.com/licenses)",
      "source": "https://sketchfab.com/3d-models/pan-8b6ae8478d514e0ea87dd61051244004",
      "title": "Pan"
    },
    "generator": "Sketchfab-16.12.0",
    "version": "2.0"
  },
  "bufferViews": [
    {
      "buffer": 0,
      "byteLength": 52008,
      "name": "floatBufferViews",
      "target": 34963
    },
    {
      "buffer": 0,
      "byteLength": 21928,
      "byteOffset": 52008,
      "byteStride": 8,
      "name": "floatBufferViews",
      "target": 34962
    },
    {
      "buffer": 0,
      "byteLength": 65784,
      "byteOffset": 73936,
      "byteStride": 12,
      "name": "floatBufferViews",
      "target": 34962
    }
  ],
  "buffers": [
    {
      "byteLength": 139720,
      "uri": "scene.bin"
    }
  ],
  "materials": [
    {
      "doubleSided": true,
      "name": "Metal",
      "pbrMetallicRoughness": {
        "baseColorFactor": [
          0.119276,
          0.119276,
          0.119276,
          1.0
        ],
        "metallicFactor": 0.0,
        "roughnessFactor": 0.9802379520202523
      }
    },
    {
      "doubleSided": true,
      "name": "Wood",
      "pbrMetallicRoughness": {
        "baseColorFactor": [
          0.05780179999999999,
          0.01722020000000002,
          0.005103479999999998,
          1.0
        ],
        "metallicFactor": 0.0,
        "roughnessFactor": 0.9957891477577231
      }
    }
  ],
  "meshes": [
    {
      "name": "Pan_Metal_0",
      "primitives": [
        {
          "attributes": {
            "NORMAL": 1,
            "POSITION": 0,
            "TEXCOORD_0": 2
          },
          "indices": 3,
          "material": 0,
          "mode": 4
        }
      ]
    },
    {
      "name": "Pan_Wood_0",
      "primitives": [
        {
          "attributes": {
            "NORMAL": 5,
            "POSITION": 4,
            "TEXCOORD_0": 6
          },
          "indices": 7,
          "material": 1,
          "mode": 4
        }
      ]
    }
  ],
  "nodes": [
    {
      "children": [
        1
      ],
      "matrix": [
        0.23200303316116333,
        0.0,
        0.0,
        0.0,
        0.0,
        5.151502183967945e-17,
        -0.23200303316116333,
        0.0,
        0.0,
        0.23200303316116333,
        5.151502183967945e-17,
        0.0,
        0.0,
        0.0,
        0.0,
        1.0
      ],
      "name": "Sketchfab_model"
    },
    {
      "children": [
        2
      ],
      "matrix": [
        0.009999999776482582,
        0.0,
        0.0,
        0.0,
        0.0,
        0.0,
        0.009999999776482582,
        0.0,
        0.0,
        -0.009999999776482582,
        0.0,
        0.0,
        0.0,
        0.0,
        0.0,
        1.0
      ],
      "name": "e356e86e2f7f4b5cba179660d6789e2f.fbx"
    },
    {
      "children": [
        3,
        6,
        8
      ],
      "name": "RootNode"
    },
    {
      "children": [
        4
      ],
      "matrix": [
        -8.363242043783181,
        26.761778354353645,
        -95.9888712394804,
        0.0,
        56.81945571936375,
        80.413842390857,
        17.46892680429085,
        0.0,
        81.86333510352702,
        -53.07938555833949,
        -21.931101077619928,
        0.0,
        142063.5,
        102773.8515625,
        266.50067138671875,
        1.0
      ],
      "name": "Light"
    },
    {
      "children": [
        5
      ],
      "matrix": [
        1.0,
        0.0,
        0.0,
        0.0,
        0.0,
        2.220446049250313e-16,
        1.0,
        0.0,
        0.0,
        -1.0,
        2.220446049250313e-16,
        0.0,
        0.0,
        0.0,
        0.0,
        1.0
      ],
      "name": "Object_4"
    },
    {
      "name": "Object_5"
    },
    {
      "children": [
        7
      ],
      "matrix": [
        -63.158826683565735,
        -45.544708777837286,
        -62.74266582077376,
        0.0,
        -33.91324161081919,
        89.00303305627695,
        -30.468846784061668,
        0.0,
        69.71982845581975,
        2.034305875246398,
        -71.6589639870477,
        0.0,
        610.6134643554688,
        495.8309326171875,
        589.449951171875,
        1.0
      ],
      "name": "Camera"
    },
    {
      "name": "Object_7"
    },
    {
      "children": [
        9,
        10
      ],
      "matrix": [
        100.0,
        0.0,
        0.0,
        0.0,
        0.0,
        -1.629206793918314e-05,
        -99.99999999999868,
        0.0,
        0.0,
        73.81644439697168,
        -1.2026225271444132e-05,
        0.0,
        0.0,
        15.772449493408203,
        0.0,
        1.0
      ],
      "name": "Pan"
    },
    {
      "mesh": 0,
      "name": "Pan_Metal_0"
    },
    {
      "mesh": 1,
      "name": "Pan_Wood_0"
    }
  ],
  "scene": 0,
  "scenes": [
    {
      "name": "Sketchfab_Scene",
      "nodes": [
        0
      ]
    }
  ]
}
