{
  "accessors": [
    {
      "bufferView": 2,
      "componentType": 5126,
      "count": 17109,
      "max": [
        1.5701299905776978,
        1.0171699523925781,
        3.7502501010894775
      ],
      "min": [
        -1.5701299905776978,
        -0.24140000343322754,
        -1.0633900165557861
      ],
      "type": "VEC3"
    },
    {
      "bufferView": 2,
      "byteOffset": 205308,
      "componentType": 5126,
      "count": 17109,
      "max": [
        0.9998994469642639,
        1.0,
        0.9999523758888245
      ],
      "min": [
        -0.9998994469642639,
        -0.9999999403953552,
        -1.0
      ],
      "type": "VEC3"
    },
    {
      "bufferView": 1,
      "componentType": 5126,
      "count": 17109,
      "max": [
        0.9997199773788452,
        0.9867500066757202
      ],
      "min": [
        0.0002800000074785203,
        0.0002800000074785203
      ],
      "type": "VEC2"
    },
    {
      "bufferView": 0,
      "componentType": 5125,
      "count": 96864,
      "type": "SCALAR"
    },
    {
      "bufferView": 2,
      "byteOffset": 410616,
      "componentType": 5126,
      "count": 18592,
      "max": [
        1.2600599527359009,
        1.9329500198364258,
        5.011960029602051
      ],
      "min": [
        -7.450610160827637,
        -15.290769577026367,
        -3.5403199195861816
      ],
      "type": "VEC3"
    },
    {
      "bufferView": 2,
      "byteOffset": 633720,
      "componentType": 5126,
      "count": 18592,
      "max": [
        0.9999764561653137,
        0.9993742108345032,
        0.9998716711997986
      ],
      "min": [
        -0.9999764561653137,
        -1.0,
        -0.9999588131904602
      ],
      "type": "VEC3"
    },
    {
      "bufferView": 1,
      "byteOffset": 136872,
      "componentType": 5126,
      "count": 18592,
      "max": [
        0.9847400188446045,
        0.9744700193405151
      ],
      "min": [
        0.029899999499320984,
        0.0129399998113513
      ],
      "type": "VEC2"
    },
    {
      "bufferView": 0,
      "byteOffset": 387456,
      "componentType": 5125,
      "count": 84744,
      "type": "SCALAR"
    },
    {
      "bufferView": 2,
      "byteOffset": 856824,
      "componentType": 5126,
      "count": 7744,
      "max": [
        4.497610092163086,
        1.9865399599075317,
        2.901829957962036
      ],
      "min": [
        -4.503640174865723,
        -0.2689799964427948,
        -11.391240119934082
      ],
      "type": "VEC3"
    },
    {
      "bufferView": 2,
      "byteOffset": 949752,
      "componentType": 5126,
      "count": 7744,
      "max": [
        0.999937891960144,
        0.9999718070030212,
        0.9648904204368591
      ],
      "min": [
        -0.999937891960144,
        -0.9999881386756897,
        -0.9943082332611084
      ],
      "type": "VEC3"
    },
    {
      "bufferView": 1,
      "byteOffset": 285608,
      "componentType": 5126,
      "count": 7744,
      "max": [
        0.999809980392456,
        0.8477399945259094
      ],
      "min": [
        0.0001900000061141327,
        0.0001900000061141327
      ],
      "type": "VEC2"
    },
    {
      "bufferView": 0,
      "byteOffset": 726432,
      "componentType": 5125,
      "count": 42426,
      "type": "SCALAR"
    },
    {
      "bufferView": 2,
      "byteOffset": 1042680,
      "componentType": 5126,
      "count": 13042,
      "max": [
        5.385499954223633,
        1.2549699544906616,
        5.000500202178955
      ],
      "min": [
        -5.3854498863220215,
        -0.09271000325679779,
        -3.958930015563965
      ],
      "type": "VEC3"
    },
    {
      "bufferView": 2,
      "byteOffset": 1199184,
      "componentType": 5126,
      "count": 13042,
      "max": [
        0.9995601177215576,
        0.9997735619544983,
        0.9999759793281555
      ],
      "min": [
        -0.9995601177215576,
        -0.9992641806602478,
        -0.9999759793281555
      ],
      "type": "VEC3"
    },
    {
      "bufferView": 1,
      "byteOffset": 347560,
      "componentType": 5126,
      "count": 13042,
      "max": [
        0.9705899953842163,
        0.9995800256729126
      ],
      "min": [
        0.0009699999936856329,
        0.0002500000118743628
      ],
      "type": "VEC2"
    },
    {
      "bufferView": 0,
      "byteOffset": 896136,
      "componentType": 5125,
      "count": 72480,
      "type": "SCALAR"
    },
    {
      "bufferView": 2,
      "byteOffset": 1355688,
      "componentType": 5126,
      "count": 65532,
      "max": [
        1.8457399606704712,
        5.134850025177002,
        3.951129913330078
      ],
      "min": [
        -6.689020156860352,
        -4.497859954833984,
        -2.9850099086761475
      ],
      "type": "VEC3"
    },
    {
      "bufferView": 2,
      "byteOffset": 2142072,
      "componentType": 5126,
      "count": 65532,
      "max": [
        0.999972403049469,
        0.9999753832817078,
        0.9999962449073792
      ],
      "min": [
        -0.9999697804450989,
        -0.9999011158943176,
        -0.9999901652336121
      ],
      "type": "VEC3"
    },
    {
      "bufferView": 1,
      "byteOffset": 451896,
      "componentType": 5126,
      "count": 65532,
      "max": [
        1.0,
        1.0
      ],
      "min": [
        0.0,
        0.0
      ],
      "type": "VEC2"
    },
    {
      "bufferView": 0,
      "byteOffset": 1186056,
      "componentType": 5125,
      "count": 339231,
      "type": "SCALAR"
    },
    {
      "bufferView": 2,
      "byteOffset": 2928456,
      "componentType": 5126,
      "count": 1816,
      "max": [
        -1.8509999513626099,
        4.4904398918151855,
        3.6548099517822266
      ],
      "min": [
        -4.541769981384277,
        -4.261040210723877,
        -1.3276400566101074
      ],
      "type": "VEC3"
    },
    {
      "bufferView": 2,
      "byteOffset": 2950248,
      "componentType": 5126,
      "count": 1816,
      "max": [
        0.9983882308006287,
        0.9857640266418457,
        0.9990357160568237
      ],
      "min": [
        -0.9647600054740906,
        -0.898476243019104,
        -0.9998763203620911
      ],
      "type": "VEC3"
    },
    {
      "bufferView": 1,
      "byteOffset": 976152,
      "componentType": 5126,
      "count": 1816,
      "max": [
        0.9648100137710571,
        0.9385499954223633
      ],
      "min": [
        0.0630199983716011,
        0.0
      ],
      "type": "VEC2"
    },
    {
      "bufferView": 0,
      "byteOffset": 2542980,
      "componentType": 5125,
      "count": 8865,
      "type": "SCALAR"
    },
    {
      "bufferView": 2,
      "byteOffset": 2972040,
      "componentType": 5126,
      "count": 9808,
      "max": [
        7.332479953765869,
        26.427490234375,
        3.203589916229248
      ],
      "min": [
        -7.332479953765869,
        0.20503999292850494,
        -13.3781099319458
      ],
      "type": "VEC3"
    },
    {
      "bufferView": 2,
      "byteOffset": 3089736,
      "componentType": 5126,
      "count": 9808,
      "max": [
        0.9998346567153931,
        0.9999991059303284,
        0.9999824166297913
      ],
      "min": [
        -0.9998346567153931,
        -0.9999931454658508,
        -0.9998627305030823
      ],
      "type": "VEC3"
    },
    {
      "bufferView": 1,
      "byteOffset": 990680,
      "componentType": 5126,
      "count": 9808,
      "max": [
        0.8718500137329102,
        0.9998199939727783
      ],
      "min": [
        0.0005600000149570405,
        0.00018000000272877514
      ],
      "type": "VEC2"
    },
    {
      "bufferView": 0,
      "byteOffset": 2578440,
      "componentType": 5125,
      "count": 56208,
      "type": "SCALAR"
    },
    {
      "bufferView": 2,
      "byteOffset": 3207432,
      "componentType": 5126,
      "count": 798,
      "max": [
        1.661520004272461,
        1.8424899578094482,
        -1.9148000478744507
      ],
      "min": [
        -1.6597700119018555,
        0.022609999403357506,
        -3.8132901191711426
      ],
      "type": "VEC3"
    },
    {
      "bufferView": 2,
      "byteOffset": 3217008,
      "componentType": 5126,
      "count": 798,
      "max": [
        0.9884306192398071,
        0.9998651146888733,
        0.9993301033973694
      ],
      "min": [
        -0.9891968965530396,
        -0.9993507266044617,
        -0.9978921413421631
      ],
      "type": "VEC3"
    },
    {
      "bufferView": 1,
      "byteOffset": 1069144,
      "componentType": 5126,
      "count": 798,
      "max": [
        0.6838099956512451,
        0.9999099969863892
      ],
      "min": [
        9.000000136438757e-05,
        9.000000136438757e-05
      ],
      "type": "VEC2"
    },
    {
      "bufferView": 0,
      "byteOffset": 2803272,
      "componentType": 5125,
      "count": 4164,
      "type": "SCALAR"
    }
  ],
  "asset": {
    "extras": {
      "author": "TMGreed (https://sketchfab.com/TMGreed)",
      "license": "CC-BY-4.0 (http://creativecommons.org/licenses/by/4.0/)",
      "source": "https://sketchfab.com/3d-models/toru-oikawa-haikyuu-94f0990bce8e460f82c8372a97f7db36",
      "title": "Tōru Oikawa (Haikyuu)"
    },
    "generator": "Sketchfab-12.65.0",
    "version": "2.0"
  },
  "bufferViews": [
    {
      "buffer": 0,
      "byteLength": 2819928,
      "name": "floatBufferViews",
      "target": 34963
    },
    {
      "buffer": 0,
      "byteLength": 1075528,
      "byteOffset": 2819928,
      "byteStride": 8,
      "name": "floatBufferViews",
      "target": 34962
    },
    {
      "buffer": 0,
      "byteLength": 3226584,
      "byteOffset": 3895456,
      "byteStride": 12,
      "name": "floatBufferViews",
      "target": 34962
    }
  ],
  "buffers": [
    {
      "byteLength": 7122040,
      "uri": "scene.bin"
    }
  ],
  "extensionsUsed": [
    "KHR_materials_unlit"
  ],
  "images": [
    {
      "uri": "textures/material_cueca_baseColor.png"
    },
    {
      "uri": "textures/Material_Cabeca_baseColor.png"
    },
    {
      "uri": "textures/Material_Cabelo_baseColor.png"
    },
    {
      "uri": "textures/Material_corpo_baseColor.png"
    },
    {
      "uri": "textures/Material_Maos_e_rosto_baseColor.png"
    },
    {
      "uri": "textures/Material_Tenis_baseColor.png"
    },
    {
      "uri": "textures/Material_uniforme_baseColor.png"
    }
  ],
  "materials": [
    {
      "doubleSided": true,
      "extensions": {
        "KHR_materials_unlit": {}
      },
      "name": "material_cueca",
      "pbrMetallicRoughness": {
        "baseColorTexture": {
          "index": 0
        },
        "metallicFactor": 0.0
      }
    },
    {
      "doubleSided": true,
      "extensions": {
        "KHR_materials_unlit": {}
      },
      "name": "Material_Cabeca",
      "pbrMetallicRoughness": {
        "baseColorTexture": {
          "index": 1
        },
        "metallicFactor": 0.0
      }
    },
    {
      "doubleSided": true,
      "extensions": {
        "KHR_materials_unlit": {}
      },
      "name": "Material_Cabelo",
      "pbrMetallicRoughness": {
        "baseColorTexture": {
          "index": 2
        },
        "metallicFactor": 0.0
      }
    },
    {
      "doubleSided": true,
      "extensions": {
        "KHR_materials_unlit": {}
      },
      "name": "Material_corpo",
      "pbrMetallicRoughness": {
        "baseColorTexture": {
          "index": 3
        },
        "metallicFactor": 0.0
      }
    },
    {
      "doubleSided": true,
      "extensions": {
        "KHR_materials_unlit": {}
      },
      "name": "Material_Maos_e_rosto",
      "pbrMetallicRoughness": {
        "baseColorTexture": {
          "index": 4
        },
        "metallicFactor": 0.0
      }
    },
    {
      "doubleSided": true,
      "extensions": {
        "KHR_materials_unlit": {}
      },
      "name": "Material_Tenis",
      "pbrMetallicRoughness": {
        "baseColorTexture": {
          "index": 5
        },
        "metallicFactor": 0.0
      }
    },
    {
      "doubleSided": true,
      "extensions": {
        "KHR_materials_unlit": {}
      },
      "name": "Material_uniforme",
      "pbrMetallicRoughness": {
        "baseColorTexture": {
          "index": 6
        },
        "metallicFactor": 0.0
      }
    }
  ],
  "meshes": [
    {
      "name": "Cube.070_0",
      "primitives": [
        {
          "attributes": {
            "NORMAL": 1,
            "POSITION": 0,
            "TEXCOORD_0": 2
          },
          "indices": 3,
          "material": 6,
          "mode": 4
        }
      ]
    },
    {
      "name": "Plane.009_0",
      "primitives": [
        {
          "attributes": {
            "NORMAL": 5,
            "POSITION": 4,
            "TEXCOORD_0": 6
          },
          "indices": 7,
          "material": 5,
          "mode": 4
        }
      ]
    },
    {
      "name": "Cube.005_0",
      "primitives": [
        {
          "attributes": {
            "NORMAL": 9,
            "POSITION": 8,
            "TEXCOORD_0": 10
          },
          "indices": 11,
          "material": 3,
          "mode": 4
        }
      ]
    },
    {
      "name": "Cube.005_1",
      "primitives": [
        {
          "attributes": {
            "NORMAL": 13,
            "POSITION": 12,
            "TEXCOORD_0": 14
          },
          "indices": 15,
          "material": 4,
          "mode": 4
        }
      ]
    },
    {
      "name": "Cube.140_0",
      "primitives": [
        {
          "attributes": {
            "NORMAL": 17,
            "POSITION": 16,
            "TEXCOORD_0": 18
          },
          "indices": 19,
          "material": 2,
          "mode": 4
        }
      ]
    },
    {
      "name": "Cube.140_0",
      "primitives": [
        {
          "attributes": {
            "NORMAL": 21,
            "POSITION": 20,
            "TEXCOORD_0": 22
          },
          "indices": 23,
          "material": 2,
          "mode": 4
        }
      ]
    },
    {
      "name": "Plane.016_0",
      "primitives": [
        {
          "attributes": {
            "NORMAL": 25,
            "POSITION": 24,
            "TEXCOORD_0": 26
          },
          "indices": 27,
          "material": 1,
          "mode": 4
        }
      ]
    },
    {
      "name": "Cube.000_0",
      "primitives": [
        {
          "attributes": {
            "NORMAL": 29,
            "POSITION": 28,
            "TEXCOORD_0": 30
          },
          "indices": 31,
          "material": 0,
          "mode": 4
        }
      ]
    }
  ],
  "nodes": [
    {
      "children": [
        1
      ],
      "matrix": [
        0.031243277713656425,
        0.0,
        0.0,
        0.0,
        0.0,
        6.9374012564918764e-18,
        -0.031243277713656425,
        0.0,
        0.0,
        0.031243277713656425,
        6.9374012564918764e-18,
        0.0,
        0.0,
        0.0,
        0.0,
        1.0
      ],
      "name": "Sketchfab_model"
    },
    {
      "children": [
        2,
        4,
        6,
        9,
        12,
        14
      ],
      "name": "Root"
    },
    {
      "children": [
        3
      ],
      "matrix": [
        5.8626499999999995,
        0.0,
        0.0,
        0.0,
        0.0,
        5.8626499999999995,
        0.0,
        0.0,
        0.0,
        0.0,
        5.8626499999999995,
        0.0,
        -6.43588,
        -10.02001,
        -18.75255,
        1.0
      ],
      "name": "Cube.070"
    },
    {
      "mesh": 0,
      "name": "Cube.070_0"
    },
    {
      "children": [
        5
      ],
      "matrix": [
        1.1,
        0.0,
        0.0,
        0.0,
        0.0,
        -0.0,
        1.1,
        0.0,
        0.0,
        -1.1,
        -0.0,
        0.0,
        -3.18465,
        -9.943209999999999,
        -29.798029999999997,
        1.0
      ],
      "name": "Plane.009"
    },
    {
      "mesh": 1,
      "name": "Plane.009_0"
    },
    {
      "children": [
        7,
        8
      ],
      "matrix": [
        3.1281200000000005,
        0.0,
        0.0,
        0.0,
        0.0,
        3.1281200000000005,
        0.0,
        0.0,
        0.0,
        0.0,
        3.1281200000000005,
        0.0,
        -6.525499999999999,
        -10.42666,
        -7.328589999999999,
        1.0
      ],
      "name": "Cube.005"
    },
    {
      "mesh": 2,
      "name": "Cube.005_0"
    },
    {
      "mesh": 3,
      "name": "Cube.005_1"
    },
    {
      "children": [
        10,
        11
      ],
      "matrix": [
        -0.4043800000000001,
        1.00985,
        -0.4438100000000001,
        0.0,
        -0.78013,
        -0.41208000000000006,
        -0.22683000000000003,
        0.0,
        -0.35419,
        0.21882000000000001,
        0.8206200000000001,
        0.0,
        -7.326,
        -5.00894,
        6.5754600000000005,
        1.0
      ],
      "name": "Cube.140"
    },
    {
      "mesh": 4,
      "name": "Cube.140_0"
    },
    {
      "mesh": 5,
      "name": "Cube.140_0"
    },
    {
      "children": [
        13
      ],
      "matrix": [
        0.41354,
        0.0,
        0.0,
        0.0,
        0.0,
        -0.0,
        0.38449000000000005,
        0.0,
        0.0,
        -0.3974800000000001,
        -0.0,
        0.0,
        -6.525429999999999,
        -10.35132,
        0.37129,
        1.0
      ],
      "name": "Plane.016"
    },
    {
      "mesh": 6,
      "name": "Plane.016_0"
    },
    {
      "children": [
        15
      ],
      "matrix": [
        3.1281200000000005,
        0.0,
        0.0,
        0.0,
        0.0,
        3.1281200000000005,
        0.0,
        0.0,
        0.0,
        0.0,
        3.1281200000000005,
        0.0,
        -6.525499999999999,
        -10.42666,
        -7.328589999999999,
        1.0
      ],
      "name": "Cube.000"
    },
    {
      "mesh": 7,
      "name": "Cube.000_0"
    }
  ],
  "samplers": [
    {
      "magFilter": 9729,
      "minFilter": 9987,
      "wrapS": 10497,
      "wrapT": 10497
    }
  ],
  "scene": 0,
  "scenes": [
    {
      "name": "Sketchfab_Scene",
      "nodes": [
        0
      ]
    }
  ],
  "textures": [
    {
      "sampler": 0,
      "source": 0
    },
    {
      "sampler": 0,
      "source": 1
    },
    {
      "sampler": 0,
      "source": 2
    },
    {
      "sampler": 0,
      "source": 3
    },
    {
      "sampler": 0,
      "source": 4
    },
    {
      "sampler": 0,
      "source": 5
    },
    {
      "sampler": 0,
      "source": 6
    }
  ]
}
