{
  "accessors": [
    {
      "bufferView": 2,
      "componentType": 5126,
      "count": 4797,
      "max": [
        0.297505646944046,
        1.770042896270752,
        0.14694976806640625
      ],
      "min": [
        -0.38610246777534485,
        0.6798767447471619,
        -0.2669849395751953
      ],
      "type": "VEC3"
    },
    {
      "bufferView": 2,
      "byteOffset": 57564,
      "componentType": 5126,
      "count": 4797,
      "max": [
        0.9992612600326538,
        0.9998712539672852,
        0.9996956586837769
      ],
      "min": [
        -0.999611496925354,
        -0.9999492168426514,
        -0.9998600482940674
      ],
      "type": "VEC3"
    },
    {
      "bufferView": 1,
      "componentType": 5126,
      "count": 4797,
      "max": [
        0.9974358677864075,
        0.9944139122962952
      ],
      "min": [
        0.006003732793033123,
        0.005754426121711731
      ],
      "type": "VEC2"
    },
    {
      "bufferView": 1,
      "byteOffset": 38376,
      "componentType": 5126,
      "count": 4797,
      "max": [
        0.9967883229255676,
        0.9926900863647461
      ],
      "min": [
        -0.009439017623662949,
        -0.017728157341480255
      ],
      "type": "VEC2"
    },
    {
      "bufferView": 0,
      "componentType": 5125,
      "count": 20310,
      "type": "SCALAR"
    },
    {
      "bufferView": 2,
      "byteOffset": 115128,
      "componentType": 5126,
      "count": 3299,
      "max": [
        0.2215663194656372,
        1.5245299339294434,
        0.13253498077392578
      ],
      "min": [
        -0.21188020706176758,
        0.6933862566947937,
        -0.24867630004882813
      ],
      "type": "VEC3"
    },
    {
      "bufferView": 2,
      "byteOffset": 154716,
      "componentType": 5126,
      "count": 3299,
      "max": [
        0.9983066916465759,
        0.999222993850708,
        0.9999922513961792
      ],
      "min": [
        -0.9994087219238281,
        -0.9979295134544373,
        -0.9994004964828491
      ],
      "type": "VEC3"
    },
    {
      "bufferView": 1,
      "byteOffset": 76752,
      "componentType": 5126,
      "count": 3299,
      "max": [
        0.9887740015983582,
        0.9973922967910767
      ],
      "min": [
        0.002607751404866576,
        0.0026077479124069214
      ],
      "type": "VEC2"
    },
    {
      "bufferView": 1,
      "byteOffset": 103144,
      "componentType": 5126,
      "count": 3299,
      "max": [
        0.958189070224762,
        0.9844794273376465
      ],
      "min": [
        0.0,
        0.0
      ],
      "type": "VEC2"
    },
    {
      "bufferView": 0,
      "byteOffset": 81240,
      "componentType": 5125,
      "count": 12948,
      "type": "SCALAR"
    },
    {
      "bufferView": 2,
      "byteOffset": 194304,
      "componentType": 5126,
      "count": 2377,
      "max": [
        0.1280093491077423,
        1.839386224746704,
        0.12911319732666016
      ],
      "min": [
        -0.151914581656456,
        1.539052963256836,
        -0.15247631072998047
      ],
      "type": "VEC3"
    },
    {
      "bufferView": 2,
      "byteOffset": 222828,
      "componentType": 5126,
      "count": 2377,
      "max": [
        0.9984607100486755,
        0.9986138939857483,
        0.9984142184257507
      ],
      "min": [
        -0.9955217242240906,
        -0.9987265467643738,
        -0.9999529123306274
      ],
      "type": "VEC3"
    },
    {
      "bufferView": 1,
      "byteOffset": 129536,
      "componentType": 5126,
      "count": 2377,
      "max": [
        0.9947338104248047,
        1.0
      ],
      "min": [
        0.0,
        0.0
      ],
      "type": "VEC2"
    },
    {
      "bufferView": 1,
      "byteOffset": 148552,
      "componentType": 5126,
      "count": 2377,
      "max": [
        0.0,
        0.0
      ],
      "min": [
        0.0,
        0.0
      ],
      "type": "VEC2"
    },
    {
      "bufferView": 0,
      "byteOffset": 133032,
      "componentType": 5125,
      "count": 8664,
      "type": "SCALAR"
    }
  ],
  "asset": {
    "extras": {
      "author": "rakai.sahakarya (https://sketchfab.com/rakai.sahakarya)",
      "license": "CC-BY-4.0 (http://creativecommons.org/licenses/by/4.0/)",
      "source": "https://sketchfab.com/3d-models/hinata-shoyou-haikyuu-53f376b55b3748868aeebc52b2e801ce",
      "title": "Hinata Shoyou - Haikyuu"
    },
    "generator": "Sketchfab-12.66.0",
    "version": "2.0"
  },
  "bufferViews": [
    {
      "buffer": 0,
      "byteLength": 167688,
      "name": "floatBufferViews",
      "target": 34963
    },
    {
      "buffer": 0,
      "byteLength": 167568,
      "byteOffset": 167688,
      "byteStride": 8,
      "name": "floatBufferViews",
      "target": 34962
    },
    {
      "buffer": 0,
      "byteLength": 251352,
      "byteOffset": 335256,
      "byteStride": 12,
      "name": "floatBufferViews",
      "target": 34962
    }
  ],
  "buffers": [
    {
      "byteLength": 586608,
      "uri": "scene.bin"
    }
  ],
  "extensionsUsed": [
    "KHR_materials_unlit"
  ],
  "images": [
    {
      "uri": "textures/skin-toon_baseColor.png"
    },
    {
      "uri": "textures/cloth-toon_baseColor.png"
    },
    {
      "uri": "textures/hair-toon_baseColor.png"
    }
  ],
  "materials": [
    {
      "doubleSided": true,
      "extensions": {
        "KHR_materials_unlit": {}
      },
      "name": "skin-toon",
      "pbrMetallicRoughness": {
        "baseColorTexture": {
          "index": 0
        },
        "metallicFactor": 0.0
      }
    },
    {
      "doubleSided": true,
      "extensions": {
        "KHR_materials_unlit": {}
      },
      "name": "cloth-toon",
      "pbrMetallicRoughness": {
        "baseColorTexture": {
          "index": 1
        },
        "metallicFactor": 0.0
      }
    },
    {
      "doubleSided": true,
      "extensions": {
        "KHR_materials_unlit": {}
      },
      "name": "hair-toon",
      "pbrMetallicRoughness": {
        "baseColorTexture": {
          "index": 2
        },
        "metallicFactor": 0.0
      }
    }
  ],
  "meshes": [
    {
      "name": "Object_0",
      "primitives": [
        {
          "attributes": {
            "NORMAL": 1,
            "POSITION": 0,
            "TEXCOORD_0": 2,
            "TEXCOORD_1": 3
          },
          "indices": 4,
          "material": 0,
          "mode": 4
        }
      ]
    },
    {
      "name": "Object_1",
      "primitives": [
        {
          "attributes": {
            "NORMAL": 6,
            "POSITION": 5,
            "TEXCOORD_0": 7,
            "TEXCOORD_1": 8
          },
          "indices": 9,
          "material": 1,
          "mode": 4
        }
      ]
    },
    {
      "name": "Object_2",
      "primitives": [
        {
          "attributes": {
            "NORMAL": 11,
            "POSITION": 10,
            "TEXCOORD_0": 12,
            "TEXCOORD_1": 13
          },
          "indices": 14,
          "material": 2,
          "mode": 4
        }
      ]
    }
  ],
  "nodes": [
    {
      "children": [
        1
      ],
      "matrix": [
        1.0,
        0.0,
        0.0,
        0.0,
        0.0,
        2.220446049250313e-16,
        -1.0,
        0.0,
        0.0,
        1.0,
        2.220446049250313e-16,
        0.0,
        0.0,
        0.0,
        0.0,
        1.0
      ],
      "name": "Sketchfab_model"
    },
    {
      "children": [
        2
      ],
      "name": "root"
    },
    {
      "children": [
        3,
        5,
        7
      ],
      "matrix": [
        1.0,
        0.0,
        0.0,
        0.0,
        0.0,
        2.220446049250313e-16,
        1.0,
        0.0,
        0.0,
        -1.0,
        2.220446049250313e-16,
        0.0,
        0.0,
        0.0,
        0.0,
        1.0
      ],
      "name": "GLTF_SceneRootNode"
    },
    {
      "children": [
        4
      ],
      "name": "eye_0"
    },
    {
      "mesh": 0,
      "name": "Object_4"
    },
    {
      "children": [
        6
      ],
      "name": "cloth_1"
    },
    {
      "mesh": 1,
      "name": "Object_6"
    },
    {
      "children": [
        8
      ],
      "name": "hair_2"
    },
    {
      "mesh": 2,
      "name": "Object_8"
    }
  ],
  "samplers": [
    {
      "magFilter": 9729,
      "minFilter": 9987,
      "wrapS": 10497,
      "wrapT": 10497
    }
  ],
  "scene": 0,
  "scenes": [
    {
      "name": "Sketchfab_Scene",
      "nodes": [
        0
      ]
    }
  ],
  "textures": [
    {
      "sampler": 0,
      "source": 0
    },
    {
      "sampler": 0,
      "source": 1
    },
    {
      "sampler": 0,
      "source": 2
    }
  ]
}
